<?xml version="1.0" encoding="UTF-8" standalone="no"?>
<svg
 viewBox="0 0 100 100" version="1.1"
 xmlns="http://www.w3.org/2000/svg">
 <circle
 cx="50"
 cy="50"
 style="fill:#ffeeaa;stroke:#000000;stroke-width:0.60000002;stroke-miterlimit:4;stroke-dasharray:none;stroke-opacity:1"
 r="50" />



<line x1="0.0000" y1="50.0000" x2="10.0000" y2="50.0000" stroke="black" stroke-width="1"/>
<line x1="1.7037" y1="37.0590" x2="5.5674" y2="38.0943" stroke="black" stroke-width="1"/>
<line x1="6.6987" y1="25.0000" x2="10.1628" y2="27.0000" stroke="black" stroke-width="1"/>
<line x1="14.6447" y1="14.6447" x2="18.8873" y2="18.8873" stroke="black" stroke-width="1"/>
<line x1="25.0000" y1="6.6987" x2="27.0000" y2="10.1628" stroke="black" stroke-width="1"/>
<line x1="37.0590" y1="1.7037" x2="38.0943" y2="5.5674" stroke="black" stroke-width="1"/>
<line x1="50.0000" y1="0.0000" x2="50.0000" y2="10.0000" stroke="black" stroke-width="1"/>
<line x1="62.9410" y1="1.7037" x2="61.9057" y2="5.5674" stroke="black" stroke-width="1"/>
<line x1="75.0000" y1="6.6987" x2="73.0000" y2="10.1628" stroke="black" stroke-width="1"/>
<line x1="85.3553" y1="14.6447" x2="81.1127" y2="18.8873" stroke="black" stroke-width="1"/>
<line x1="93.3013" y1="25.0000" x2="89.8372" y2="27.0000" stroke="black" stroke-width="1"/>
<line x1="98.2963" y1="37.0590" x2="94.4326" y2="38.0943" stroke="black" stroke-width="1"/>
<line x1="100.0000" y1="50.0000" x2="90.0000" y2="50.0000" stroke="black" stroke-width="1"/>
<line x1="98.2963" y1="62.9410" x2="94.4326" y2="61.9057" stroke="black" stroke-width="1"/>
<line x1="93.3013" y1="75.0000" x2="89.8372" y2="73.0000" stroke="black" stroke-width="1"/>
<line x1="85.3553" y1="85.3553" x2="81.1127" y2="81.1127" stroke="black" stroke-width="1"/>
<line x1="75.0000" y1="93.3013" x2="73.0000" y2="89.8372" stroke="black" stroke-width="1"/>
<line x1="62.9410" y1="98.2963" x2="61.9057" y2="94.4326" stroke="black" stroke-width="1"/>
<line x1="50.0000" y1="100.0000" x2="50.0000" y2="90.0000" stroke="black" stroke-width="1"/>
<line x1="37.0590" y1="98.2963" x2="38.0943" y2="94.4326" stroke="black" stroke-width="1"/>
<line x1="25.0000" y1="93.3013" x2="27.0000" y2="89.8372" stroke="black" stroke-width="1"/>
<line x1="14.6447" y1="85.3553" x2="18.8873" y2="81.1127" stroke="black" stroke-width="1"/>
<line x1="6.6987" y1="75.0000" x2="10.1628" y2="73.0000" stroke="black" stroke-width="1"/>
<line x1="1.7037" y1="62.9410" x2="5.5674" y2="61.9057" stroke="black" stroke-width="1"/>

</svg>
